/* XPM */
static char * onit_xpm[] = {
"32 32 5 1",
" 	c #808080800000",
".	c #FFFFFFFF0000",
"X	c #000000000000",
"o	c #FFFFFFFFFFFF",
"O	c #000080800000",
" ...............................",
" ...............................",
" .X..........................X..",
" .... ooXXXXXXXXXXXXXXXXo ......",
" ..... ooXXXXXXXXXXXXXXo .......",
" ...... oo            o ........",
" ....... ooOOOOOOOOOOo .........",
" .. ..... oo        o ...... ...",
" ..X ..... ooOOOOOOo ...... X...",
" ..XX ..... ooOOOOo ...... XX...",
" .. XX ..... ooOOo ...... XX ...",
" .. OXX ..... ooo ...... XXO ...",
" .. OOXX ..... oo...... XXOO ...",
" .. OO XX ..... oo.... XX OO ...",
" .. OO OXX ..... ooo. XXO OO ...",
" .. OO OOXX ...X. oo XXOO OO ...",
" .. OO OOOXX ..X.. ooXOOO OO ...",
" .. OO OOOoXX ..... ooOOO OO ...",
" .. OO OOo .XX ..... ooOO OO ...",
" .. OO Oo ...XX ..... ooO OO ...",
" .. OO o .....XX ..... oo OO ...",
" .. OOo ...... XX ..... ooOO ...",
" .. Oo ...... XXXX ..... ooO ...",
" .. o ...... XXOOXX ..... oo ...",
" ..o ...... XXOOOOXX ..... oo...",
" .. ...... XX      XX ..... o...",
" ........ XXOOOOOOOOXX ..... ...",
" ....... XX          XX ........",
" ...... XXOOOOOOOOOOOOXX .......",
" .X..........................X..",
" ...............................",
"                                "};
