/* XPM */
static char * blkbal32_xpm[] = {
"32 32 4 1",
" 	c #808080800000",
".	c #000000000000",
"X	c #FFFFFFFFFFFF",
"o	c #808080808080",
"                                ",
"                                ",
"                                ",
"                                ",
"                                ",
"                                ",
"                                ",
"                                ",
"                                ",
"                                ",
"                                ",
"              ....              ",
"             ......             ",
"            ....XX..            ",
"            ...oooo.            ",
"            ....oo..            ",
"            ........            ",
"             ......             ",
"              ....              ",
"                                ",
"                                ",
"                                ",
"                                ",
"                                ",
"                                ",
"                                ",
"                                ",
"                                ",
"                                ",
"                                ",
"                                ",
"                                "};
