/* XPM */
static char * sel32_xpm[] = {
"32 32 6 1",
" 	c #808080800000",
".	c #FFFFFFFF0000",
"X	c #000000000000",
"o	c #FFFFFFFFFFFF",
"O	c #000080800000",
"+	c #FFFF00000000",
" ...............................",
" ...............................",
" .X..........................X..",
" .... ooXXXXXXXXXXXXXXXXo ......",
" ..... ooXXXXXXXXXXXXXXo .......",
" ...... oo            o ........",
" ....... ooOOOOOOOOOOo .........",
" .. ..... oo        o ...... ...",
" ..X ..++++++++++++++++++.. X...",
" ..XX .++++++++++++++++++. XX...",
" .. XX ++... ooOOo ....++ XX ...",
" .. OXX++.... ooo .....++XXO ...",
" .. OOX++..... oo......++XOO ...",
" .. OO ++ ..... oo.... ++ OO ...",
" .. OO ++X ..... ooo. X++ OO ...",
" .. OO ++XX ...X. oo XX++ OO ...",
" .. OO ++OXX ..X.. ooXO++ OO ...",
" .. OO ++OoXX ..... ooO++ OO ...",
" .. OO ++o .XX ..... oo++ OO ...",
" .. OO ++ ...XX ..... o++ OO ...",
" .. OO ++.....XX ..... ++ OO ...",
" .. OOo++..... XX .....++oOO ...",
" .. Oo ++.... XXXX ....++ooO ...",
" .. o .++++++++++++++++++ oo ...",
" ..o ..++++++++++++++++++. oo...",
" .. ...... XX      XX ..... o...",
" ........ XXOOOOOOOOXX ..... ...",
" ....... XX          XX ........",
" ...... XXOOOOOOOOOOOOXX .......",
" .X..........................X..",
" ...............................",
"                                "};
