/* XPM */
static char * birck32_xpm[] = {
"32 32 3 1",
" 	c #C0C0C0C0C0C0",
".	c #FFFF00000000",
"X	c #808080808080",
"                                ",
"....... X.............. X.......",
"....... X.............. X.......",
"....... X.............. X.......",
"....... X.............. X.......",
"....... X.............. X.......",
"....... X.............. X.......",
"XXXXXXX XXXXXXXXXXXXXXX XXXXXXXX",
"                                ",
"X.............. X.............. ",
"X.............. X.............. ",
"X.............. X.............. ",
"X.............. X.............. ",
"X.............. X.............. ",
"X.............. X.............. ",
"XXXXXXXXXXXXXXX XXXXXXXXXXXXXXX ",
"                                ",
"....... X.............. X.......",
"....... X.............. X.......",
"....... X.............. X.......",
"....... X.............. X.......",
"....... X.............. X.......",
"....... X.............. X.......",
"XXXXXXX XXXXXXXXXXXXXXX XXXXXXXX",
"                                ",
"X.............. X.............. ",
"X.............. X.............. ",
"X.............. X.............. ",
"X.............. X.............. ",
"X.............. X.............. ",
"X.............. X.............. ",
"XXXXXXXXXXXXXXX XXXXXXXXXXXXXXXX"};
